<?xml version="1.0" encoding="utf-8"?>
<svg version="1.1" id="logo" xmlns="http://www.w3.org/2000/svg" xmlns:xlink="http://www.w3.org/1999/xlink" x="0px" y="0px"
	 viewBox="0 0 163 194" enable-background="new 0 0 163 194" xml:space="preserve">
<path fill="#EC1B23" d="M151.6,82.2c5.1-3.7,8.4-9.5,8.4-15.9c0-5.4-2.1-10.7-5.5-14.2c-2.8-2.8-6.3-4.3-10.1-4.3
	c-3.2,0-5.4,1-6.6,1.7c-1.2-0.6-3.5-1.7-6.6-1.7c-3,0-5.8,0.9-8.1,2.6L93.2,72.4V67l20-14.7c7.3-5,8.9-14.4,8.9-21.8
	c0-5.8-0.7-12.5-5.6-18.1c-5.6-6.4-16-7.1-23.4-7.1H69.5l-7.6,5.6l-0.2-0.2C57.2,6,50.8,3.5,43,3.5c-6.9,0-12.5,1.7-16.6,5L0,27.9
	v165.8"/>
<g>
	<path fill="#FFFFFF" d="M36.4,57.2v5.2c0,4.2,1.4,7.9,6.8,7.9c4,0,5.7-3.6,5.7-7.3c0-6.1-5.1-8.5-9.5-11.2c-5.3-3-9.7-5.8-12.9-9.5
		c-3.1-3.7-5-8.2-5-14.6c0-13.7,8.3-20.7,21.5-20.7c14.9,0,22.5,9.9,21.7,23.7H48.9c-0.2-4.3,0-10.1-5.6-10.5
		c-3.5-0.3-5.5,1.7-5.9,4.9c-0.5,4.4,1.8,6.6,5.2,9c6.4,4.1,12,6.6,16,10.3c4,3.7,6.3,8.6,6.3,17.4c0,14-7.8,21.8-22,21.8
		c-15.7,0-22.3-8.8-22.3-18.4v-7.8H36.4z"/>
	<path fill="#FFFFFF" d="M72.8,81.6v-73h20.3c6.6,0,16.2,0.6,20.9,6c4,4.5,4.8,9.9,4.8,15.9c0,7.9-1.8,16.7-9.6,20.3
		c-5.9,2.9-12.8,2-19.3,2.3v28.4H72.8z M89.9,40.1c3.2-0.1,6.9,0.3,9.6-1.8c1.8-1.9,2.1-4.9,2.1-7.4c0-2.8-0.3-7.1-3.2-8.5
		c-1.7-0.6-4-0.6-6.7-0.6h-1.8V40.1z"/>
	<path fill="#FFFFFF" d="M152.1,54.5c-2.2-2.2-4.8-3.3-7.7-3.3c-2.5,0-4.2,0.8-5.3,1.4l0,0l0,0c-0.2,0.1-0.2,0.3-0.2,0.5l0.7,2
		c0.1,0.2,0.2,0.3,0.4,0.3l4.3,0c0.2,0,0.3,0.1,0.4,0.3c0.1,0.2,0,0.3-0.1,0.4l-3.4,2.5c-0.1,0.1-0.2,0.3-0.1,0.4l1.3,4.1
		c0.1,0.2,0,0.3-0.1,0.4c-0.1,0.1-0.3,0.1-0.4,0L138,61c-0.1-0.1-0.3-0.1-0.4,0l-3.5,2.5c-0.1,0.1-0.3,0.1-0.4,0
		c-0.1-0.1-0.2-0.3-0.1-0.4l1.3-4.1c0.1-0.2,0-0.3-0.1-0.4l-3.4-2.5c-0.1-0.1-0.2-0.3-0.1-0.4c0.1-0.2,0.2-0.3,0.4-0.3l4.3,0
		c0.2,0,0.3-0.1,0.4-0.3l0.7-2c0.1-0.2,0-0.4-0.2-0.5l0,0l0,0c-1.1-0.6-2.8-1.4-5.3-1.4c-2.9,0-5.6,1.1-7.7,3.3
		c-2.9,2.9-4.6,7.3-4.6,11.9c0,9.4,8.5,17,18.9,17c10.4,0,18.9-7.6,18.9-17C156.7,61.8,155,57.3,152.1,54.5z"/>
</g>
</svg>

